<svg width="50" height="50" viewBox="0 0 50 50" fill="none" xmlns="http://www.w3.org/2000/svg">
<path d="M7.71484 27.99H12.1712V31.2793H7.71484V27.99Z" fill="#2A3D56"/>
<path d="M47.0364 19.2771H2.9624C1.34678 19.2771 0.0371094 20.5868 0.0371094 22.2024V47.0749C0.0371094 48.6904 1.34678 50 2.9624 50H47.0364C48.6521 50 49.9617 48.6904 49.9617 47.0748V22.2024C49.9617 20.5868 48.6521 19.2771 47.0364 19.2771ZM11.835 43.6525H4.59453V40.7272H11.835V43.6525ZM15.0961 31.7671C15.0961 33.1113 14.0025 34.2048 12.6584 34.2048H7.22686C5.88272 34.2048 4.78916 33.1113 4.78916 31.7671V27.5027C4.78916 26.1585 5.88272 25.065 7.22686 25.065H12.6583C14.0024 25.065 15.096 26.1585 15.096 27.5027V31.7671H15.0961ZM23.0247 43.6525H15.7843V40.7272H23.0247V43.6525ZM34.2146 43.6525H26.9741V40.7272H34.2146V43.6525ZM45.4043 43.6525H38.1639V40.7272H45.4043V43.6525Z" fill="#2A3D56"/>
<path d="M39.3069 7.10601L33.0577 0.856787C31.9153 -0.285596 30.0632 -0.285596 28.9207 0.856787L13.4258 16.3517H30.5895L39.3069 7.10601Z" fill="#2A3D56"/>
<path d="M39.1267 16.3518L43.7008 11.5005L41.3758 9.17554L34.6094 16.3518H39.1267Z" fill="#2A3D56"/>
<path d="M47.037 16.3517C47.6653 16.3517 48.2704 16.4524 48.8382 16.6366L45.7714 13.5698L43.1484 16.3518H47.037V16.3517Z" fill="#2A3D56"/>
</svg>
