<svg width="94" height="41" viewBox="0 0 94 41" fill="none" xmlns="http://www.w3.org/2000/svg">
<circle cx="20.5" cy="20.5" r="20.5" fill="white"/>
<path d="M15.028 31V12.67H18.382V28.166H27.014V31H15.028Z" fill="#5B9BF3"/>
<path d="M55.696 31.26C54.344 31.26 53.174 30.9827 52.186 30.428C51.198 29.8733 50.4267 29.0847 49.872 28.062C49.3347 27.0393 49.066 25.826 49.066 24.422C49.066 23.018 49.3347 21.8133 49.872 20.808C50.4267 19.7853 51.198 18.9967 52.186 18.442C53.174 17.8873 54.344 17.61 55.696 17.61C57.048 17.61 58.218 17.8873 59.206 18.442C60.2113 18.9967 60.9827 19.7853 61.52 20.808C62.0747 21.8133 62.352 23.018 62.352 24.422C62.352 25.826 62.0747 27.0393 61.52 28.062C60.9827 29.0847 60.2113 29.8733 59.206 30.428C58.218 30.9827 57.048 31.26 55.696 31.26ZM55.696 28.764C56.7187 28.764 57.5333 28.4087 58.14 27.698C58.7467 26.97 59.05 25.878 59.05 24.422C59.05 22.966 58.7467 21.8827 58.14 21.172C57.5333 20.4613 56.7187 20.106 55.696 20.106C54.6733 20.106 53.8587 20.4613 53.252 21.172C52.6453 21.8827 52.342 22.966 52.342 24.422C52.342 25.878 52.6453 26.97 53.252 27.698C53.8587 28.4087 54.6733 28.764 55.696 28.764ZM71.2387 36.824C70.0254 36.824 68.9247 36.694 67.9367 36.434C66.9661 36.174 66.0994 35.7753 65.3367 35.238L66.0387 32.898C66.5414 33.2273 67.0614 33.496 67.5987 33.704C68.1361 33.912 68.6907 34.068 69.2627 34.172C69.8347 34.276 70.4154 34.328 71.0047 34.328C72.2181 34.328 73.1194 34.0247 73.7087 33.418C74.3154 32.8287 74.6187 31.9793 74.6187 30.87V27.724H74.8787C74.6014 28.6253 74.0381 29.3447 73.1887 29.882C72.3567 30.4193 71.3947 30.688 70.3027 30.688C69.1241 30.688 68.0927 30.428 67.2087 29.908C66.3421 29.3707 65.6661 28.608 65.1807 27.62C64.6954 26.632 64.4527 25.4707 64.4527 24.136C64.4527 22.8013 64.6954 21.6487 65.1807 20.678C65.6661 19.69 66.3421 18.936 67.2087 18.416C68.0927 17.8787 69.1241 17.61 70.3027 17.61C71.4121 17.61 72.3741 17.8787 73.1887 18.416C74.0207 18.936 74.5754 19.6467 74.8527 20.548L74.6187 20.392L74.8787 17.87H78.0247C77.9554 18.4073 77.9034 18.9533 77.8687 19.508C77.8341 20.0627 77.8167 20.6087 77.8167 21.146V30.48C77.8167 32.5427 77.2534 34.1113 76.1267 35.186C75.0174 36.278 73.3881 36.824 71.2387 36.824ZM71.1867 28.192C72.2267 28.192 73.0501 27.8453 73.6567 27.152C74.2807 26.4413 74.5927 25.436 74.5927 24.136C74.5927 22.836 74.2807 21.8393 73.6567 21.146C73.0501 20.4527 72.2267 20.106 71.1867 20.106C70.1294 20.106 69.2887 20.4527 68.6647 21.146C68.0407 21.8393 67.7287 22.836 67.7287 24.136C67.7287 25.436 68.0407 26.4413 68.6647 27.152C69.2887 27.8453 70.1294 28.192 71.1867 28.192ZM87.2565 31.26C85.9045 31.26 84.7345 30.9827 83.7465 30.428C82.7585 29.8733 81.9872 29.0847 81.4325 28.062C80.8952 27.0393 80.6265 25.826 80.6265 24.422C80.6265 23.018 80.8952 21.8133 81.4325 20.808C81.9872 19.7853 82.7585 18.9967 83.7465 18.442C84.7345 17.8873 85.9045 17.61 87.2565 17.61C88.6085 17.61 89.7785 17.8873 90.7665 18.442C91.7719 18.9967 92.5432 19.7853 93.0805 20.808C93.6352 21.8133 93.9125 23.018 93.9125 24.422C93.9125 25.826 93.6352 27.0393 93.0805 28.062C92.5432 29.0847 91.7719 29.8733 90.7665 30.428C89.7785 30.9827 88.6085 31.26 87.2565 31.26ZM87.2565 28.764C88.2792 28.764 89.0939 28.4087 89.7005 27.698C90.3072 26.97 90.6105 25.878 90.6105 24.422C90.6105 22.966 90.3072 21.8827 89.7005 21.172C89.0939 20.4613 88.2792 20.106 87.2565 20.106C86.2339 20.106 85.4192 20.4613 84.8125 21.172C84.2059 21.8827 83.9025 22.966 83.9025 24.422C83.9025 25.878 84.2059 26.97 84.8125 27.698C85.4192 28.4087 86.2339 28.764 87.2565 28.764Z" fill="white"/>
</svg>
