<svg width="114" height="48" viewBox="0 0 114 48" fill="none" xmlns="http://www.w3.org/2000/svg">
<path d="M0.9 36V0.749998H7.35V30.55H23.95V36H0.9ZM39.5344 36.5C36.9344 36.5 34.6844 35.9667 32.7844 34.9C30.8844 33.8333 29.401 32.3167 28.3344 30.35C27.301 28.3833 26.7844 26.05 26.7844 23.35C26.7844 20.65 27.301 18.3333 28.3344 16.4C29.401 14.4333 30.8844 12.9167 32.7844 11.85C34.6844 10.7833 36.9344 10.25 39.5344 10.25C42.1344 10.25 44.3844 10.7833 46.2844 11.85C48.2177 12.9167 49.701 14.4333 50.7344 16.4C51.801 18.3333 52.3344 20.65 52.3344 23.35C52.3344 26.05 51.801 28.3833 50.7344 30.35C49.701 32.3167 48.2177 33.8333 46.2844 34.9C44.3844 35.9667 42.1344 36.5 39.5344 36.5ZM39.5344 31.7C41.501 31.7 43.0677 31.0167 44.2344 29.65C45.401 28.25 45.9844 26.15 45.9844 23.35C45.9844 20.55 45.401 18.4667 44.2344 17.1C43.0677 15.7333 41.501 15.05 39.5344 15.05C37.5677 15.05 36.001 15.7333 34.8344 17.1C33.6677 18.4667 33.0844 20.55 33.0844 23.35C33.0844 26.15 33.6677 28.25 34.8344 29.65C36.001 31.0167 37.5677 31.7 39.5344 31.7ZM69.4242 47.2C67.0909 47.2 64.9742 46.95 63.0742 46.45C61.2076 45.95 59.5409 45.1833 58.0742 44.15L59.4242 39.65C60.3909 40.2833 61.3909 40.8 62.4242 41.2C63.4576 41.6 64.5242 41.9 65.6242 42.1C66.7242 42.3 67.8409 42.4 68.9742 42.4C71.3076 42.4 73.0409 41.8167 74.1742 40.65C75.3409 39.5167 75.9242 37.8833 75.9242 35.75V29.7H76.4242C75.8909 31.4333 74.8076 32.8167 73.1742 33.85C71.5742 34.8833 69.7242 35.4 67.6242 35.4C65.3576 35.4 63.3742 34.9 61.6742 33.9C60.0076 32.8667 58.7076 31.4 57.7742 29.5C56.8409 27.6 56.3742 25.3667 56.3742 22.8C56.3742 20.2333 56.8409 18.0167 57.7742 16.15C58.7076 14.25 60.0076 12.8 61.6742 11.8C63.3742 10.7667 65.3576 10.25 67.6242 10.25C69.7576 10.25 71.6076 10.7667 73.1742 11.8C74.7742 12.8 75.8409 14.1667 76.3742 15.9L75.9242 15.6L76.4242 10.75H82.4742C82.3409 11.7833 82.2409 12.8333 82.1742 13.9C82.1076 14.9667 82.0742 16.0167 82.0742 17.05V35C82.0742 38.9667 80.9909 41.9833 78.8242 44.05C76.6909 46.15 73.5576 47.2 69.4242 47.2ZM69.3242 30.6C71.3242 30.6 72.9076 29.9333 74.0742 28.6C75.2742 27.2333 75.8742 25.3 75.8742 22.8C75.8742 20.3 75.2742 18.3833 74.0742 17.05C72.9076 15.7167 71.3242 15.05 69.3242 15.05C67.2909 15.05 65.6742 15.7167 64.4742 17.05C63.2742 18.3833 62.6742 20.3 62.6742 22.8C62.6742 25.3 63.2742 27.2333 64.4742 28.6C65.6742 29.9333 67.2909 30.6 69.3242 30.6ZM100.228 36.5C97.6277 36.5 95.3777 35.9667 93.4777 34.9C91.5777 33.8333 90.0944 32.3167 89.0277 30.35C87.9944 28.3833 87.4777 26.05 87.4777 23.35C87.4777 20.65 87.9944 18.3333 89.0277 16.4C90.0944 14.4333 91.5777 12.9167 93.4777 11.85C95.3777 10.7833 97.6277 10.25 100.228 10.25C102.828 10.25 105.078 10.7833 106.978 11.85C108.911 12.9167 110.394 14.4333 111.428 16.4C112.494 18.3333 113.028 20.65 113.028 23.35C113.028 26.05 112.494 28.3833 111.428 30.35C110.394 32.3167 108.911 33.8333 106.978 34.9C105.078 35.9667 102.828 36.5 100.228 36.5ZM100.228 31.7C102.194 31.7 103.761 31.0167 104.928 29.65C106.094 28.25 106.678 26.15 106.678 23.35C106.678 20.55 106.094 18.4667 104.928 17.1C103.761 15.7333 102.194 15.05 100.228 15.05C98.2611 15.05 96.6944 15.7333 95.5277 17.1C94.3611 18.4667 93.7777 20.55 93.7777 23.35C93.7777 26.15 94.3611 28.25 95.5277 29.65C96.6944 31.0167 98.2611 31.7 100.228 31.7Z" fill="#2A3D56"/>
</svg>
