<svg width="82" height="80" viewBox="0 0 82 80" fill="none" xmlns="http://www.w3.org/2000/svg">
<rect width="82" height="80" rx="10" fill="#FFE7BB"/>
<g clip-path="url(#clip0_229_1786)">
<path d="M41 44.9875C38.2386 44.9875 36 47.2261 36 49.9875V59.9875H46V49.9875C46 47.2261 43.7614 44.9875 41 44.9875Z" fill="#F4AF4C"/>
<path d="M49.3334 49.9875V59.9875H56C58.7614 59.9875 61 57.749 61 54.9875V39.7859C61.0004 38.92 60.6639 38.088 60.0616 37.4659L45.8984 22.1542C43.3993 19.4503 39.1815 19.2843 36.4776 21.7833C36.3491 21.9021 36.2254 22.0257 36.1067 22.1542L21.9684 37.4609C21.3479 38.0856 20.9998 38.9304 21 39.8109V54.9875C21 57.749 23.2386 59.9875 26 59.9875H32.6666V49.9875C32.6978 45.4429 36.3671 41.7316 40.7973 41.6247C45.3758 41.5143 49.2984 45.2887 49.3334 49.9875Z" fill="#F4AF4C"/>
<path d="M41 44.9875C38.2386 44.9875 36 47.2261 36 49.9875V59.9875H46V49.9875C46 47.2261 43.7614 44.9875 41 44.9875Z" fill="#F4AF4C"/>
</g>
<defs>
<clipPath id="clip0_229_1786">
<rect width="40" height="40" fill="white" transform="translate(21 20)"/>
</clipPath>
</defs>
</svg>
