<svg width="82" height="80" viewBox="0 0 82 80" fill="none" xmlns="http://www.w3.org/2000/svg">
<rect width="82" height="80" rx="10" fill="#C9E8E0"/>
<g clip-path="url(#clip0_229_1798)">
<path d="M52.6667 20H29.3333C24.7333 20 21 23.7333 21 28.3333V51.6667C21 56.2667 24.7333 60 29.3333 60H52.6667C57.2667 60 61 56.2667 61 51.6667V28.3333C61 23.7333 57.2667 20 52.6667 20ZM41 53.3333C33.65 53.3333 27.6667 47.35 27.6667 40C27.6667 32.65 33.65 26.6667 41 26.6667C48.35 26.6667 54.3333 32.65 54.3333 40C54.3333 47.35 48.35 53.3333 41 53.3333ZM41 30C35.4833 30 31 34.4833 31 40C31 45.5167 35.4833 50 41 50C46.5167 50 51 45.5167 51 40C51 34.4833 46.5167 30 41 30ZM41 42.5C39.6167 42.5 38.5 41.3833 38.5 40C38.5 38.6167 39.6167 37.5 41 37.5C42.3833 37.5 43.5 38.6167 43.5 40C43.5 41.3833 42.3833 42.5 41 42.5Z" fill="#0B8D69"/>
</g>
<defs>
<clipPath id="clip0_229_1798">
<rect width="40" height="40" fill="white" transform="translate(21 20)"/>
</clipPath>
</defs>
</svg>
