<svg width="82" height="80" viewBox="0 0 82 80" fill="none" xmlns="http://www.w3.org/2000/svg">
<rect width="82" height="80" rx="10" fill="#FEDEE3"/>
<g clip-path="url(#clip0_229_1806)">
<path d="M60.0004 28.1251C60.0004 28.545 59.8336 28.9478 59.5367 29.2447C59.2397 29.5416 58.837 29.7084 58.4171 29.7084C57.9971 29.7084 57.5944 29.5416 57.2975 29.2447C57.0006 28.9478 56.8337 28.545 56.8337 28.1251C56.8161 27.5717 56.6865 27.0275 56.4529 26.5255C56.2193 26.0235 55.8864 25.574 55.4744 25.2041C55.0623 24.8343 54.5796 24.5516 54.0554 24.3734C53.5312 24.1951 52.9763 24.1248 52.4242 24.1668C52.0042 24.1668 51.6015 23.9999 51.3046 23.703C51.0076 23.4061 50.8408 23.0034 50.8408 22.5834C50.8408 22.1635 51.0076 21.7608 51.3046 21.4638C51.6015 21.1669 52.0042 21.0001 52.4242 21.0001C53.3918 20.9609 54.3575 21.1151 55.2648 21.4537C56.1722 21.7922 57.0029 22.3083 57.7083 22.9718C58.4138 23.6352 58.9799 24.4327 59.3734 25.3176C59.767 26.2024 59.9801 27.1569 60.0004 28.1251Z" fill="#F23F57"/>
<path d="M25.1667 28.1251C25.1843 27.5717 25.3139 27.0275 25.5475 26.5255C25.7811 26.0235 26.114 25.574 26.526 25.2041C26.9381 24.8343 27.4208 24.5516 27.945 24.3734C28.4692 24.1951 29.0241 24.1248 29.5763 24.1668C29.9962 24.1668 30.3989 23.9999 30.6958 23.703C30.9928 23.4061 31.1596 23.0034 31.1596 22.5834C31.1596 22.1635 30.9928 21.7608 30.6958 21.4638C30.3989 21.1669 29.9962 21.0001 29.5763 21.0001C28.6086 20.9609 27.6429 21.1151 26.7356 21.4537C25.8282 21.7922 24.9975 22.3083 24.2921 22.9718C23.5866 23.6352 23.0205 24.4327 22.627 25.3176C22.2334 26.2024 22.0203 27.1569 22 28.1251C22 28.545 22.1668 28.9478 22.4637 29.2447C22.7607 29.5416 23.1634 29.7084 23.5833 29.7084C24.0033 29.7084 24.406 29.5416 24.7029 29.2447C24.9999 28.9478 25.1667 28.545 25.1667 28.1251Z" fill="#F23F57"/>
<path d="M54.1717 52.9453C56.2671 50.5263 57.654 47.5757 58.1798 44.4188C58.7055 41.2618 58.3496 38.0211 57.1513 35.0535C55.9529 32.0859 53.9587 29.5067 51.3882 27.6C48.8178 25.6933 45.7709 24.5332 42.5833 24.2474V22.5833C42.5833 22.1634 42.4165 21.7607 42.1196 21.4637C41.8226 21.1668 41.4199 21 41 21C40.58 21 40.1773 21.1668 39.8804 21.4637C39.5834 21.7607 39.4166 22.1634 39.4166 22.5833V24.2474C36.229 24.5332 33.1821 25.6933 30.6117 27.6C28.0413 29.5067 26.047 32.0859 24.8487 35.0535C23.6503 38.0211 23.2944 41.2618 23.8202 44.4188C24.3459 47.5757 25.7328 50.5263 27.8282 52.9453C27.0007 53.3547 26.3092 53.9946 25.837 54.7879C25.3648 55.5812 25.132 56.4941 25.1666 57.4167C25.1666 57.8366 25.3334 58.2393 25.6304 58.5363C25.9273 58.8332 26.33 59 26.75 59C27.1699 59 27.5726 58.8332 27.8695 58.5363C28.1665 58.2393 28.3333 57.8366 28.3333 57.4167C28.3201 56.9286 28.4953 56.4543 28.8226 56.0919C29.1498 55.7296 29.6039 55.5072 30.0908 55.4707C30.1997 55.45 30.3059 55.4171 30.4075 55.3726C33.4404 57.7249 37.1696 59.0016 41.0079 59.0016C44.8461 59.0016 48.5754 57.7249 51.6083 55.3726C51.701 55.4153 51.7975 55.4492 51.8965 55.4739C52.385 55.5072 52.8418 55.7279 53.1717 56.0898C53.5015 56.4518 53.6788 56.9271 53.6666 57.4167C53.6666 57.8366 53.8334 58.2393 54.1304 58.5363C54.4273 58.8332 54.83 59 55.25 59C55.6699 59 56.0726 58.8332 56.3696 58.5363C56.6665 58.2393 56.8333 57.8366 56.8333 57.4167C56.868 56.4941 56.6352 55.5812 56.1629 54.7879C55.6907 53.9946 54.9992 53.3547 54.1717 52.9453ZM46.8694 45.8694C46.5725 46.1662 46.1698 46.333 45.75 46.333C45.3301 46.333 44.9275 46.1662 44.6305 45.8694L39.8805 41.1194C39.5836 40.8226 39.4167 40.4199 39.4166 40V32.0833C39.4166 31.6634 39.5834 31.2607 39.8804 30.9637C40.1773 30.6668 40.58 30.5 41 30.5C41.4199 30.5 41.8226 30.6668 42.1196 30.9637C42.4165 31.2607 42.5833 31.6634 42.5833 32.0833V39.3445L46.8694 43.6306C47.1662 43.9275 47.333 44.3302 47.333 44.75C47.333 45.1698 47.1662 45.5725 46.8694 45.8694Z" fill="#F23F57"/>
</g>
<defs>
<clipPath id="clip0_229_1806">
<rect width="38" height="38" fill="white" transform="translate(22 21)"/>
</clipPath>
</defs>
</svg>
