<svg width="82" height="80" viewBox="0 0 82 80" fill="none" xmlns="http://www.w3.org/2000/svg">
<rect width="82" height="80" rx="10" fill="#BBF3FF"/>
<path d="M41.0003 35C41.0003 34.558 41.1759 34.134 41.4885 33.8215C41.801 33.5089 42.225 33.3333 42.667 33.3333C43.109 33.3333 43.5329 33.5089 43.8455 33.8215C44.1581 34.134 44.3337 34.558 44.3337 35C44.3337 35.442 44.1581 35.8659 43.8455 36.1785C43.5329 36.4911 43.109 36.6667 42.667 36.6667C42.225 36.6667 41.801 36.4911 41.4885 36.1785C41.1759 35.8659 41.0003 35.442 41.0003 35ZM59.3337 28.3333V51.6667C59.331 53.876 58.4522 55.9941 56.89 57.5563C55.3277 59.1185 53.2097 59.9974 51.0003 60H34.3337C32.714 59.9979 31.1302 59.5238 29.7757 58.6358C28.4212 57.7478 27.3548 56.4844 26.707 55H24.3337C23.8916 55 23.4677 54.8244 23.1551 54.5118C22.8426 54.1993 22.667 53.7754 22.667 53.3333C22.667 52.8913 22.8426 52.4674 23.1551 52.1548C23.4677 51.8423 23.8916 51.6667 24.3337 51.6667H26.0003V48.3333H24.3337C23.8916 48.3333 23.4677 48.1577 23.1551 47.8452C22.8426 47.5326 22.667 47.1087 22.667 46.6667C22.667 46.2246 22.8426 45.8007 23.1551 45.4882C23.4677 45.1756 23.8916 45 24.3337 45H26.0003V41.6667H24.3337C23.8916 41.6667 23.4677 41.4911 23.1551 41.1785C22.8426 40.8659 22.667 40.442 22.667 40C22.667 39.558 22.8426 39.134 23.1551 38.8215C23.4677 38.5089 23.8916 38.3333 24.3337 38.3333H26.0003V35H24.3337C23.8916 35 23.4677 34.8244 23.1551 34.5118C22.8426 34.1993 22.667 33.7754 22.667 33.3333C22.667 32.8913 22.8426 32.4674 23.1551 32.1548C23.4677 31.8423 23.8916 31.6667 24.3337 31.6667H26.0003V28.3333H24.3337C23.8916 28.3333 23.4677 28.1577 23.1551 27.8452C22.8426 27.5326 22.667 27.1087 22.667 26.6667C22.667 26.2246 22.8426 25.8007 23.1551 25.4882C23.4677 25.1756 23.8916 25 24.3337 25H26.707C27.3548 23.5156 28.4212 22.2522 29.7757 21.3642C31.1302 20.4762 32.714 20.0021 34.3337 20H51.0003C53.2097 20.0026 55.3277 20.8815 56.89 22.4437C58.4522 24.0059 59.331 26.124 59.3337 28.3333ZM37.667 35C37.667 36.3261 38.1938 37.5979 39.1315 38.5355C40.0691 39.4732 41.3409 40 42.667 40C43.9931 40 45.2648 39.4732 46.2025 38.5355C47.1402 37.5979 47.667 36.3261 47.667 35C47.667 33.6739 47.1402 32.4021 46.2025 31.4645C45.2648 30.5268 43.9931 30 42.667 30C41.3409 30 40.0691 30.5268 39.1315 31.4645C38.1938 32.4021 37.667 33.6739 37.667 35ZM51.0003 50C50.6487 38.9867 34.682 38.99 34.3337 50C34.3337 50.442 34.5093 50.866 34.8218 51.1785C35.1344 51.4911 35.5583 51.6667 36.0003 51.6667C36.4424 51.6667 36.8663 51.4911 37.1788 51.1785C37.4914 50.866 37.667 50.442 37.667 50C37.667 48.6739 38.1938 47.4021 39.1315 46.4645C40.0691 45.5268 41.3409 45 42.667 45C43.9931 45 45.2648 45.5268 46.2025 46.4645C47.1402 47.4021 47.667 48.6739 47.667 50C47.667 50.442 47.8426 50.866 48.1551 51.1785C48.4677 51.4911 48.8916 51.6667 49.3337 51.6667C49.7757 51.6667 50.1996 51.4911 50.5122 51.1785C50.8247 50.866 51.0003 50.442 51.0003 50Z" fill="#4997A8"/>
</svg>
