<svg width="82" height="80" viewBox="0 0 82 80" fill="none" xmlns="http://www.w3.org/2000/svg">
<rect width="82" height="80" rx="10" fill="#BBCAFF"/>
<g clip-path="url(#clip0_229_1824)">
<path d="M52.6667 49.1667C49.9167 49.1667 47.6667 46.9167 47.6667 44.1667C47.6667 41.4167 49.9167 39.1667 52.6667 39.1667C55.4167 39.1667 57.6667 41.4167 57.6667 44.1667C57.6667 46.9167 55.4167 49.1667 52.6667 49.1667ZM59.3333 60H46C45.4833 60 45 59.7667 44.6833 59.35C44.3667 58.95 44.25 58.4167 44.3833 57.9167C45.3167 54.3 48.8 51.6667 52.6667 51.6667C56.5333 51.6667 60.0167 54.3 60.95 57.9167C61.0833 58.4167 60.9667 58.95 60.65 59.35C60.3333 59.75 59.85 60 59.3333 60ZM41 30C35.4833 30 31 34.4833 31 40C31 45.5167 35.4833 50 41 50C42.7167 50 44.35 49.5667 45.7667 48.8C44.8667 47.4667 44.3333 45.8833 44.3333 44.1667C44.3333 40.4167 46.85 37.2667 50.2667 36.2333C48.7833 32.5833 45.2 30 41 30ZM41 42.5C39.6167 42.5 38.5 41.3833 38.5 40C38.5 38.6167 39.6167 37.5 41 37.5C42.3833 37.5 43.5 38.6167 43.5 40C43.5 41.3833 42.3833 42.5 41 42.5ZM41.15 57.0833C41.5167 55.6333 42.2 54.3167 43.0667 53.15C42.3833 53.25 41.7 53.3333 40.9833 53.3333C33.5 53.3333 27.4333 47.1333 27.65 39.6C27.85 32.9333 33.1833 27.2833 39.8167 26.7167C46.25 26.1667 51.8167 30.2167 53.65 35.9333C57.7667 36.4333 60.9833 39.9167 60.9833 44.1667V28.3333C60.9833 23.7333 57.25 20 52.65 20H29.3333C24.7333 20 21 23.7333 21 28.3333V51.6667C21 56.2667 24.7333 60 29.3333 60H41.3167C40.9833 59.0667 40.9 58.05 41.15 57.0833Z" fill="#596CB0"/>
</g>
<defs>
<clipPath id="clip0_229_1824">
<rect width="40" height="40" fill="white" transform="translate(21 20)"/>
</clipPath>
</defs>
</svg>
