<svg width="82" height="80" viewBox="0 0 82 80" fill="none" xmlns="http://www.w3.org/2000/svg">
<rect width="82" height="80" rx="10" fill="#EDBBFF"/>
<g clip-path="url(#clip0_229_1832)">
<path d="M60.7717 31.4666L21 31.6516V30C21.0026 27.7906 21.8815 25.6726 23.4437 24.1103C25.0059 22.5481 27.124 21.6693 29.3333 21.6666H33.5467C34.3223 21.6673 35.0873 21.8475 35.7817 22.1933L41.0417 24.8333C41.2741 24.9447 41.5289 25.0017 41.7867 25H52.6667C54.5495 25.0037 56.3756 25.645 57.8474 26.8192C59.3192 27.9935 60.3499 29.6316 60.7717 31.4666ZM61 34.8V50C60.9974 52.2093 60.1185 54.3274 58.5563 55.8896C56.9941 57.4518 54.876 58.3306 52.6667 58.3333H29.3333C27.124 58.3306 25.0059 57.4518 23.4437 55.8896C21.8815 54.3274 21.0026 52.2093 21 50V34.985L61 34.8ZM47.6667 46.6666C47.6667 46.2246 47.4911 45.8007 47.1785 45.4881C46.8659 45.1756 46.442 45 46 45H42.6667V41.6666C42.6667 41.2246 42.4911 40.8007 42.1785 40.4881C41.8659 40.1756 41.442 40 41 40C40.558 40 40.134 40.1756 39.8215 40.4881C39.5089 40.8007 39.3333 41.2246 39.3333 41.6666V45H36C35.558 45 35.134 45.1756 34.8215 45.4881C34.5089 45.8007 34.3333 46.2246 34.3333 46.6666C34.3333 47.1087 34.5089 47.5326 34.8215 47.8451C35.134 48.1577 35.558 48.3333 36 48.3333H39.3333V51.6666C39.3333 52.1087 39.5089 52.5326 39.8215 52.8451C40.134 53.1577 40.558 53.3333 41 53.3333C41.442 53.3333 41.8659 53.1577 42.1785 52.8451C42.4911 52.5326 42.6667 52.1087 42.6667 51.6666V48.3333H46C46.442 48.3333 46.8659 48.1577 47.1785 47.8451C47.4911 47.5326 47.6667 47.1087 47.6667 46.6666Z" fill="#A557C0"/>
</g>
<defs>
<clipPath id="clip0_229_1832">
<rect width="40" height="40" fill="white" transform="translate(21 20)"/>
</clipPath>
</defs>
</svg>
