<svg width="15" height="21" viewBox="0 0 15 21" fill="none" xmlns="http://www.w3.org/2000/svg">
<path d="M2.44622 0.248156C2.14317 0.24149 1.84558 0.32934 1.59481 0.499625C1.34404 0.669911 1.15256 0.914217 1.04699 1.19836C0.941413 1.4825 0.926995 1.79243 1.00573 2.08515C1.08447 2.37786 1.25246 2.63865 1.48634 2.83148L10.4101 10.4763L1.48634 18.1185C1.32455 18.2374 1.18906 18.3883 1.08835 18.562C0.987639 18.7357 0.923876 18.9284 0.901054 19.1279C0.878232 19.3274 0.896844 19.5294 0.955723 19.7213C1.0146 19.9133 1.11248 20.0911 1.24323 20.2434C1.37398 20.3958 1.53478 20.5194 1.71556 20.6068C1.89634 20.6941 2.09322 20.7432 2.29385 20.7509C2.49448 20.7587 2.69455 20.725 2.88153 20.6518C3.0685 20.5787 3.23836 20.4677 3.38046 20.3259L13.5973 11.5843C13.7578 11.4474 13.8866 11.2774 13.975 11.0859C14.0633 10.8944 14.1091 10.6859 14.1091 10.475C14.1091 10.2641 14.0633 10.0556 13.975 9.86405C13.8866 9.67252 13.7578 9.50241 13.5973 9.36549L3.38046 0.61552C3.12237 0.386274 2.79133 0.255941 2.44622 0.247819V0.248156Z" fill="#2A3D56"/>
</svg>
