<svg width="9" height="15" viewBox="0 0 9 15" fill="none" xmlns="http://www.w3.org/2000/svg">
<path d="M6.58651 6.81387C5.99789 6.48858 5.3721 6.24074 4.7525 5.98361C4.39313 5.8349 4.04925 5.66142 3.74565 5.41977C3.14774 4.94268 3.26236 4.16818 3.96251 3.86148C4.16078 3.77474 4.36835 3.74685 4.57901 3.73446C5.39069 3.69109 6.16209 3.83979 6.89631 4.19297C7.26188 4.36955 7.3827 4.31379 7.50662 3.93273C7.63673 3.52999 7.74516 3.12106 7.86598 2.71522C7.94653 2.4426 7.8474 2.26291 7.59026 2.14829C7.11937 1.94072 6.63608 1.79202 6.12801 1.71147C5.46504 1.60924 5.46504 1.60614 5.46194 0.94007C5.45884 0.00137691 5.45884 0.00137689 4.51705 0.00137689C4.38074 0.00137689 4.24443 -0.00172111 4.10812 0.00137689C3.6682 0.0137689 3.59385 0.0912188 3.58146 0.534232C3.57526 0.732504 3.58146 0.930776 3.57836 1.13215C3.57526 1.72076 3.57216 1.71147 3.00833 1.91594C1.64521 2.41162 0.802554 3.34102 0.712713 4.82805C0.632165 6.1447 1.31992 7.03383 2.40112 7.68131C3.06719 8.08095 3.80451 8.3164 4.51086 8.6293C4.78658 8.75012 5.04991 8.88953 5.27916 9.0816C5.95762 9.64234 5.8337 10.5748 5.02822 10.928C4.5976 11.117 4.14219 11.1635 3.6744 11.1046C2.95256 11.0148 2.26171 10.8258 1.61113 10.4881C1.23008 10.2898 1.11855 10.3425 0.988434 10.7545C0.876906 11.1108 0.777771 11.4702 0.678635 11.8295C0.545421 12.3128 0.594988 12.4274 1.05659 12.6536C1.64521 12.9386 2.2741 13.0842 2.91539 13.1864C3.41726 13.267 3.43275 13.2887 3.43895 13.8091C3.44205 14.0446 3.44205 14.2831 3.44514 14.5186C3.44824 14.816 3.59075 14.9895 3.89745 14.9957C4.24443 15.0019 4.5945 15.0019 4.94148 14.9926C5.22649 14.9864 5.3721 14.8315 5.3721 14.5434C5.3721 14.2212 5.38759 13.8959 5.3752 13.5737C5.35971 13.2453 5.50221 13.078 5.81821 12.9913C6.54624 12.793 7.16584 12.4027 7.64293 11.8202C8.96887 10.2093 8.4639 7.8517 6.58651 6.81387Z" fill="#2A3D56"/>
</svg>
