<svg width="41" height="41" viewBox="0 0 41 41" fill="none" xmlns="http://www.w3.org/2000/svg">
<g clip-path="url(#clip0_229_2013)">
<mask id="path-2-inside-1_229_2013" fill="white">
<path fill-rule="evenodd" clip-rule="evenodd" d="M29.3493 14.5811C28.6746 14.8898 27.9481 15.1001 27.1867 15.194C27.9651 14.7126 28.5619 13.9494 28.8428 13.0404C28.1145 13.4859 27.3102 13.8098 26.4512 13.9843C25.7659 13.2274 24.787 12.7549 23.7035 12.7549C21.6259 12.7549 19.9393 14.4988 19.9393 16.6489C19.9393 16.954 19.9724 17.2501 20.0377 17.5346C16.908 17.3727 14.1352 15.8239 12.2768 13.4654C11.9529 14.0425 11.7686 14.7126 11.7686 15.4248C11.7686 16.7759 12.4325 17.9668 13.4417 18.6656C12.8262 18.6468 12.2455 18.4705 11.7355 18.1797V18.2281C11.7355 20.1151 13.0346 21.6907 14.757 22.0459C14.4412 22.1372 14.1092 22.1828 13.7647 22.1828C13.5232 22.1828 13.2861 22.1595 13.057 22.113C13.5357 23.6591 14.9252 24.7865 16.5733 24.816C15.2849 25.8611 13.6609 26.4838 11.8974 26.4838C11.5941 26.4838 11.2935 26.4659 11 26.4301C12.666 27.5333 14.6452 28.1784 16.7711 28.1784C23.6963 28.1784 27.4819 22.2463 27.4819 17.1007C27.4819 16.9307 27.4784 16.7625 27.4712 16.596C28.2076 16.0467 28.8464 15.3613 29.3502 14.5811"/>
</mask>
<path d="M27.1867 15.194L26.6607 14.3435L27.3091 16.1865L27.1867 15.194ZM28.8428 13.0404L29.7982 13.3356L30.5803 10.8051L28.321 12.1873L28.8428 13.0404ZM26.4512 13.9843L25.7099 14.6555L26.0922 15.0777L26.6503 14.9643L26.4512 13.9843ZM20.0377 17.5346L19.9861 18.5333L21.3087 18.6017L21.0124 17.3109L20.0377 17.5346ZM12.2768 13.4654L13.0623 12.8465L12.1367 11.6718L11.4047 12.9759L12.2768 13.4654ZM13.4417 18.6656L13.4112 19.6651L16.7911 19.7683L14.011 17.8434L13.4417 18.6656ZM11.7355 18.1797L12.2308 17.311L10.7355 16.4584V18.1797H11.7355ZM14.757 22.0459L15.0346 23.0066L14.959 21.0665L14.757 22.0459ZM13.057 22.113L13.2561 21.133L11.6028 20.7972L12.1017 22.4088L13.057 22.113ZM16.5733 24.816L17.2033 25.5926L19.3329 23.8653L16.5912 23.8162L16.5733 24.816ZM11 26.4301L11.1211 25.4375L10.4479 27.2639L11 26.4301ZM27.4712 16.596L26.8732 15.7945L26.4494 16.1107L26.4721 16.639L27.4712 16.596ZM28.9332 13.6718C28.3496 13.9388 27.7219 14.1204 27.0642 14.2015L27.3091 16.1865C28.1743 16.0797 28.9997 15.8408 29.7653 15.4904L28.9332 13.6718ZM27.7126 16.0445C28.6974 15.4355 29.4462 14.4747 29.7982 13.3356L27.8874 12.7451C27.6775 13.4242 27.2328 13.9897 26.6607 14.3435L27.7126 16.0445ZM28.321 12.1873C27.6886 12.5742 26.9931 12.8538 26.2522 13.0043L26.6503 14.9643C27.6273 14.7658 28.5404 14.3977 29.3647 13.8934L28.321 12.1873ZM27.1925 13.3131C26.3284 12.3587 25.0851 11.7549 23.7035 11.7549V13.7549C24.4889 13.7549 25.2034 14.096 25.7099 14.6555L27.1925 13.3131ZM23.7035 11.7549C21.0421 11.7549 18.9393 13.9786 18.9393 16.6489H20.9393C20.9393 15.019 22.2097 13.7549 23.7035 13.7549V11.7549ZM18.9393 16.6489C18.9393 17.0266 18.9803 17.3979 19.0631 17.7584L21.0124 17.3109C20.9645 17.1023 20.9393 16.8813 20.9393 16.6489H18.9393ZM20.0894 16.536C17.2654 16.3898 14.7536 14.993 13.0623 12.8465L11.4913 14.0843C13.5167 16.6548 16.5505 18.3555 19.9861 18.5333L20.0894 16.536ZM11.4047 12.9759C10.9982 13.7004 10.7686 14.5388 10.7686 15.4248H12.7686C12.7686 14.8865 12.9076 14.3846 13.1488 13.9548L11.4047 12.9759ZM10.7686 15.4248C10.7686 17.1081 11.5968 18.6045 12.8725 19.4878L14.011 17.8434C13.2682 17.3291 12.7686 16.4437 12.7686 15.4248H10.7686ZM13.4722 17.6661C13.03 17.6526 12.6079 17.5261 12.2308 17.311L11.2401 19.0485C11.883 19.415 12.6223 19.641 13.4112 19.6651L13.4722 17.6661ZM10.7355 18.1797V18.2281H12.7355V18.1797H10.7355ZM10.7355 18.2281C10.7355 20.5751 12.3541 22.5714 14.555 23.0253L14.959 21.0665C13.7152 20.81 12.7355 19.655 12.7355 18.2281H10.7355ZM14.4794 21.0852C14.2585 21.149 14.0203 21.1828 13.7647 21.1828V23.1828C14.1981 23.1828 14.6239 23.1253 15.0346 23.0066L14.4794 21.0852ZM13.7647 21.1828C13.5873 21.1828 13.417 21.1657 13.2561 21.133L12.858 23.093C13.1551 23.1534 13.459 23.1828 13.7647 23.1828V21.1828ZM12.1017 22.4088C12.6989 24.3376 14.4453 25.778 16.5554 25.8158L16.5912 23.8162C15.4051 23.7949 14.3725 22.9807 14.0123 21.8173L12.1017 22.4088ZM15.9434 24.0394C14.8242 24.9471 13.4204 25.4838 11.8974 25.4838V27.4838C13.9015 27.4838 15.7456 26.775 17.2033 25.5926L15.9434 24.0394ZM11.8974 25.4838C11.6332 25.4838 11.373 25.4682 11.1211 25.4375L10.8789 27.4227C11.2139 27.4636 11.555 27.4838 11.8974 27.4838V25.4838ZM10.4479 27.2639C12.2693 28.47 14.4391 29.1784 16.7711 29.1784V27.1784C14.8513 27.1784 13.0627 26.5966 11.5521 25.5963L10.4479 27.2639ZM16.7711 29.1784C24.3926 29.1784 28.4819 22.6427 28.4819 17.1007H26.4819C26.4819 21.8499 23.0001 27.1784 16.7711 27.1784V29.1784ZM28.4819 17.1007C28.4819 16.9167 28.4781 16.7341 28.4703 16.5531L26.4721 16.639C26.4787 16.7908 26.4819 16.9447 26.4819 17.1007H28.4819ZM28.0692 17.3976C28.9023 16.776 29.6227 16.0026 30.1903 15.1235L28.51 14.0387C28.0701 14.7201 27.5129 15.3173 26.8732 15.7945L28.0692 17.3976Z" fill="white" mask="url(#path-2-inside-1_229_2013)"/>
</g>
<rect x="0.5" y="0.5" width="40" height="40" rx="20" stroke="white"/>
<defs>
<clipPath id="clip0_229_2013">
<rect width="18.7895" height="17" fill="white" transform="translate(11 12)"/>
</clipPath>
</defs>
</svg>
