<svg width="41" height="41" viewBox="0 0 41 41" fill="none" xmlns="http://www.w3.org/2000/svg">
<path fill-rule="evenodd" clip-rule="evenodd" d="M25.6444 16.35C25.6444 16.86 25.2329 17.2752 24.7255 17.2752C24.22 17.2752 23.8093 16.8609 23.8093 16.35C23.8093 15.8391 24.22 15.4239 24.7255 15.4239C25.232 15.4239 25.6444 15.8391 25.6444 16.35ZM20.6455 23.0364C19.2381 23.0364 18.0964 21.8858 18.0964 20.4667C18.0964 19.0468 19.2381 17.8961 20.6464 17.8961C22.052 17.8961 23.1937 19.0468 23.1937 20.4667C23.1937 21.8858 22.0521 23.0364 20.6455 23.0364ZM20.6455 16.5066C18.4758 16.5066 16.7185 18.2782 16.7185 20.4667C16.7185 22.6543 18.4758 24.4259 20.6464 24.4259C22.8135 24.4259 24.5707 22.6543 24.5707 20.4667C24.5707 18.2782 22.8135 16.5066 20.6455 16.5066ZM20.6455 14.1445C22.6855 14.1445 22.9271 14.1516 23.7342 14.1892C24.4804 14.2232 24.8839 14.3485 25.1541 14.4541C25.5102 14.5945 25.7652 14.7618 26.0327 15.0312C26.3012 15.3014 26.4658 15.5582 26.6054 15.9169C26.71 16.1898 26.8335 16.5979 26.8684 17.3503C26.9042 18.1627 26.9131 18.4061 26.9131 20.4667C26.9131 22.5255 26.9042 22.7697 26.8684 23.5822C26.8335 24.3337 26.71 24.7426 26.6054 25.0146C26.4658 25.3743 26.3012 25.6302 26.0327 25.9013C25.7652 26.1697 25.5102 26.338 25.1541 26.4784C24.8839 26.584 24.4804 26.7093 23.7342 26.7433C22.928 26.7808 22.6864 26.788 20.6455 26.788C18.6037 26.788 18.3613 26.7808 17.5551 26.7433C16.8107 26.7093 16.4054 26.584 16.1361 26.4784C15.7791 26.338 15.5241 26.1706 15.2565 25.9013C14.9899 25.6302 14.8235 25.3734 14.6848 25.0155C14.5801 24.7426 14.4557 24.3337 14.4209 23.5822C14.3851 22.7697 14.377 22.5264 14.377 20.4667C14.377 18.407 14.385 18.1627 14.4217 17.3503C14.4557 16.5987 14.5801 16.1898 14.6848 15.9178C14.8235 15.5582 14.989 15.3014 15.2565 15.0312C15.5241 14.7627 15.7791 14.5945 16.1361 14.4541C16.4045 14.3485 16.8107 14.2232 17.5551 14.1892C18.3613 14.1516 18.6037 14.1445 20.6455 14.1445ZM20.6455 12.7549C18.5697 12.7549 18.3076 12.7639 17.4925 12.8015C16.6783 12.8373 16.1235 12.9688 15.6368 13.1594C15.1339 13.3562 14.7081 13.6193 14.2813 14.0487C13.8572 14.4782 13.5968 14.9077 13.4008 15.4141C13.2112 15.9053 13.0823 16.4663 13.0447 17.2868C13.008 18.1091 13 18.3721 13 20.4667C13 22.5604 13.008 22.8234 13.0447 23.6457C13.0823 24.4662 13.2112 25.0272 13.4008 25.5175C13.5968 26.0248 13.8572 26.4552 14.2813 26.8837C14.7081 27.3132 15.1339 27.5763 15.6368 27.774C16.1235 27.9637 16.6783 28.0943 17.4925 28.1319C18.3076 28.1686 18.5689 28.1784 20.6455 28.1784C22.7213 28.1784 22.9808 28.1695 23.7968 28.1319C24.611 28.0943 25.1675 27.9637 25.6534 27.774C26.1553 27.5763 26.5812 27.3132 27.008 26.8837C27.4321 26.4543 27.6943 26.0248 27.8893 25.5175C28.0781 25.0272 28.2078 24.4662 28.2445 23.6457C28.2821 22.8234 28.291 22.5604 28.291 20.4667C28.291 18.3721 28.2821 18.1091 28.2445 17.2868C28.2087 16.4663 28.0781 15.9053 27.8893 15.4141C27.6943 14.9077 27.4321 14.4773 27.008 14.0487C26.5812 13.6193 26.1553 13.3562 25.6534 13.1585C25.1675 12.9688 24.611 12.8381 23.7968 12.8006C22.9817 12.7639 22.7204 12.7549 20.6455 12.7549Z" fill="#FAF5FF"/>
<rect x="0.5" y="0.5" width="40" height="40" rx="20" stroke="white"/>
</svg>
