<svg width="41" height="41" viewBox="0 0 41 41" fill="none" xmlns="http://www.w3.org/2000/svg">
<mask id="mask0_229_2026" style="mask-type:alpha" maskUnits="userSpaceOnUse" x="15" y="13" width="12" height="16">
<path d="M15.21 13.1336H26.736V28.1786H15.21V13.1336Z" fill="white"/>
</mask>
<g mask="url(#mask0_229_2026)">
<path fill-rule="evenodd" clip-rule="evenodd" d="M22.1218 24.0064C21.1984 24.0064 20.3296 23.5026 20.0317 22.93C20.0317 22.93 19.5351 24.9199 19.4295 25.3046C19.0591 26.6619 17.9702 28.0219 17.887 28.1329C17.8271 28.2107 17.6964 28.1866 17.683 28.0828C17.6589 27.911 17.3815 26.1976 17.7081 24.7991L18.8086 20.0901C18.8086 20.0901 18.5348 19.5381 18.5348 18.7229C18.5348 17.4417 19.2712 16.4861 20.1856 16.4861C20.964 16.4861 21.338 17.0757 21.338 17.7835C21.338 18.5735 20.8405 19.7555 20.5846 20.8497C20.369 21.7668 21.0383 22.5148 21.9339 22.5148C23.5534 22.5148 24.6459 20.4122 24.6459 17.9195C24.6459 16.0262 23.3834 14.6081 21.0866 14.6081C18.4919 14.6081 16.876 16.5631 16.876 18.7471C16.876 19.5005 17.0961 20.0311 17.4405 20.4417C17.598 20.6305 17.6195 20.7066 17.5631 20.9231C17.5211 21.0824 17.428 21.4653 17.3878 21.6174C17.3323 21.8366 17.1551 21.9145 16.9601 21.8331C15.7656 21.3409 15.21 20.0176 15.21 18.5315C15.21 16.0763 17.2571 13.1326 21.321 13.1326C24.5868 13.1326 26.736 15.5198 26.736 18.0832C26.736 21.4743 24.8704 24.0064 22.1218 24.0064Z" fill="#FAF5FF"/>
</g>
<rect x="0.5" y="0.5" width="40" height="40" rx="20" stroke="white"/>
</svg>
