<svg width="41" height="41" viewBox="0 0 41 41" fill="none" xmlns="http://www.w3.org/2000/svg">
<mask id="mask0_229_2037" style="mask-type:alpha" maskUnits="userSpaceOnUse" x="16" y="12" width="8" height="18">
<path d="M16 12.2671H23.822V29.0821H16V12.2671Z" fill="white"/>
</mask>
<g mask="url(#mask0_229_2037)">
<path d="M23.2678 18.2141L23.065 20.1801H21.157H20.657V20.6801V28.5821H18.163V20.6801V20.1801H17.663H16.5V18.2141H17.662H18.162V17.7141V15.7911C18.162 15.1686 18.312 14.4045 18.7502 13.8094C19.1692 13.2405 19.8941 12.7663 21.1871 12.7661C21.1874 12.7661 21.1877 12.7661 21.188 12.7661L23.278 12.7742V14.6591H21.898C21.6747 14.6591 21.3624 14.7125 21.0966 14.929C20.8113 15.1612 20.656 15.5181 20.656 15.9671V17.7141V18.2141H21.156H23.2678Z" stroke="white"/>
</g>
<rect x="0.5" y="0.5" width="40" height="40" rx="20" stroke="white"/>
</svg>
