<svg width="21" height="21" viewBox="0 0 21 21" fill="none" xmlns="http://www.w3.org/2000/svg">
<path d="M16.5923 12.9055C16.1658 12.4614 15.6514 12.2239 15.1061 12.2239C14.5653 12.2239 14.0465 12.457 13.6024 12.9011L12.2129 14.2861C12.0986 14.2246 11.9843 14.1674 11.8743 14.1103C11.716 14.0311 11.5665 13.9564 11.439 13.8772C10.1375 13.0506 8.95471 11.9733 7.82028 10.5795C7.27065 9.88473 6.9013 9.29993 6.63308 8.70633C6.99364 8.37655 7.32781 8.03358 7.65319 7.70381C7.77631 7.58069 7.89942 7.45318 8.02254 7.33006C8.94591 6.40669 8.94591 5.2107 8.02254 4.28733L6.82215 3.08694C6.68584 2.95063 6.54514 2.80993 6.41323 2.66922C6.14941 2.39661 5.8724 2.1152 5.58659 1.85138C5.16008 1.42926 4.65003 1.20502 4.11359 1.20502C3.57715 1.20502 3.05831 1.42926 2.6186 1.85138C2.61421 1.85578 2.61421 1.85578 2.60981 1.86017L1.11482 3.36835C0.552006 3.93117 0.231023 4.6171 0.160671 5.41296C0.0551428 6.69689 0.433286 7.89288 0.723489 8.67555C1.43581 10.597 2.49988 12.3778 4.08721 14.2861C6.0131 16.5858 8.33033 18.4018 10.9773 19.6813C11.9886 20.1606 13.3385 20.7278 14.8467 20.8245C14.939 20.8289 15.0358 20.8333 15.1237 20.8333C16.1394 20.8333 16.9925 20.4684 17.6608 19.7428C17.6652 19.734 17.674 19.7297 17.6784 19.7209C17.907 19.4438 18.1709 19.1932 18.4479 18.925C18.6369 18.7447 18.8304 18.5556 19.0195 18.3578C19.4548 17.9049 19.6834 17.3772 19.6834 16.8364C19.6834 16.2912 19.4504 15.7679 19.0063 15.3282L16.5923 12.9055ZM18.1665 17.5355C18.1621 17.5355 18.1621 17.5399 18.1665 17.5355C17.995 17.7202 17.8191 17.8873 17.63 18.072C17.3442 18.3446 17.054 18.6304 16.7814 18.9514C16.3373 19.4263 15.8141 19.6505 15.1281 19.6505C15.0622 19.6505 14.9918 19.6505 14.9259 19.6461C13.6199 19.5626 12.4064 19.0525 11.4962 18.6172C9.00747 17.4124 6.82215 15.702 5.00618 13.5343C3.5068 11.7271 2.50428 10.0562 1.84033 8.26223C1.43141 7.16737 1.28191 6.31435 1.34787 5.5097C1.39184 4.99525 1.5897 4.56874 1.95465 4.20378L3.45404 2.7044C3.66949 2.50214 3.89814 2.39221 4.12238 2.39221C4.3994 2.39221 4.62364 2.5593 4.76435 2.7C4.76875 2.7044 4.77314 2.7088 4.77754 2.71319C5.04576 2.96382 5.30078 3.22325 5.569 3.50026C5.70531 3.64096 5.84601 3.78167 5.98672 3.92677L7.18711 5.12716C7.65319 5.59324 7.65319 6.02415 7.18711 6.49023C7.05959 6.61775 6.93647 6.74526 6.80896 6.86838C6.43961 7.24652 6.08785 7.59828 5.70531 7.94125C5.69652 7.95004 5.68772 7.95444 5.68333 7.96323C5.30518 8.34138 5.37553 8.71073 5.45468 8.96136C5.45908 8.97455 5.46347 8.98774 5.46787 9.00093C5.78006 9.75722 6.21976 10.4695 6.88811 11.3182L6.89251 11.3226C8.10608 12.8175 9.38561 13.9827 10.7971 14.8753C10.9773 14.9897 11.162 15.082 11.3379 15.1699C11.4962 15.2491 11.6457 15.3238 11.7732 15.403C11.7908 15.4118 11.8084 15.425 11.826 15.4338C11.9755 15.5085 12.1162 15.5437 12.2613 15.5437C12.6262 15.5437 12.8549 15.315 12.9296 15.2403L14.4334 13.7365C14.5829 13.587 14.8203 13.4067 15.0973 13.4067C15.37 13.4067 15.5942 13.5782 15.7305 13.7277C15.7349 13.7321 15.7349 13.7321 15.7393 13.7365L18.1621 16.1593C18.615 16.6078 18.615 17.0695 18.1665 17.5355Z" fill="white"/>
<path d="M11.3861 4.95569C12.5381 5.14916 13.5846 5.69439 14.42 6.52982C15.2554 7.36526 15.7963 8.41175 15.9941 9.56376C16.0425 9.85397 16.2931 10.0562 16.5789 10.0562C16.6141 10.0562 16.6449 10.0518 16.6801 10.0474C17.0055 9.99467 17.2209 9.68688 17.1681 9.3615C16.9307 7.96765 16.2712 6.69691 15.2642 5.68999C14.2573 4.68308 12.9866 4.02352 11.5927 3.78608C11.2673 3.73332 10.964 3.94877 10.9068 4.26976C10.8496 4.59074 11.0607 4.90293 11.3861 4.95569Z" fill="white"/>
<path d="M20.9369 9.19002C20.5455 6.89478 19.4639 4.8062 17.8018 3.14412C16.1397 1.48205 14.0511 0.400384 11.7559 0.00904971C11.4349 -0.0481115 11.1315 0.171739 11.0743 0.492722C11.0216 0.818101 11.237 1.1215 11.5624 1.17866C13.6114 1.52602 15.4802 2.49776 16.9664 3.97956C18.4525 5.46575 19.4199 7.33448 19.7673 9.38349C19.8156 9.67369 20.0662 9.87596 20.3521 9.87596C20.3872 9.87596 20.418 9.87156 20.4532 9.86716C20.7742 9.8188 20.994 9.511 20.9369 9.19002Z" fill="white"/>
</svg>
