<svg width="22" height="17" viewBox="0 0 22 17" fill="none" xmlns="http://www.w3.org/2000/svg">
<path d="M18.1946 16.6667H3.50952C1.65251 16.6667 0.141602 15.1558 0.141602 13.2987V3.36792C0.141602 1.51091 1.65251 0 3.50952 0H18.1949C20.0519 0 21.5628 1.51091 21.5628 3.36792V13.2985C21.5625 15.1558 20.0519 16.6667 18.1946 16.6667ZM3.50952 0.957849C2.18065 0.957849 1.09969 2.03881 1.09969 3.36768V13.2985C1.09969 14.6274 2.18065 15.7083 3.50952 15.7083H18.1949C19.5237 15.7083 20.6047 14.6274 20.6047 13.2985V3.36792C20.6047 2.03905 19.5237 0.958088 18.1949 0.958088H3.50952V0.957849Z" fill="white"/>
<path d="M10.8527 10.2868C10.76 10.2868 10.6673 10.2599 10.5868 10.2063L0.38125 3.40004C0.161129 3.25321 0.101728 2.95572 0.248555 2.7356C0.395621 2.51548 0.692629 2.45584 0.912989 2.60291L10.8527 9.23216L20.7933 2.60291C21.0137 2.45656 21.3107 2.51572 21.4578 2.7356C21.6046 2.95572 21.5452 3.25321 21.3248 3.40004L11.1185 10.2063C11.0381 10.2599 10.9454 10.2868 10.8527 10.2868Z" fill="white"/>
<path d="M1.45966 15.7158C1.32145 15.7158 1.18421 15.6562 1.0896 15.5412C0.921451 15.3369 0.950912 15.0351 1.15522 14.867L7.02352 10.0399C7.22759 9.87197 7.52939 9.90119 7.69777 10.1055C7.86591 10.3098 7.83645 10.6116 7.63214 10.7798L1.76385 15.6068C1.67475 15.6799 1.56672 15.7158 1.45966 15.7158Z" fill="white"/>
<path d="M20.2457 15.7157C20.1386 15.7157 20.0308 15.6801 19.9415 15.6065L14.0732 10.7794C13.8689 10.6113 13.8394 10.3095 14.0076 10.1052C14.1757 9.90086 14.4777 9.8714 14.6818 10.0395L20.5501 14.8666C20.7544 15.0348 20.7839 15.3366 20.6157 15.5409C20.5211 15.6561 20.3839 15.7157 20.2457 15.7157Z" fill="white"/>
</svg>
